<svg width="270" height="178" viewBox="0 0 270 178" fill="none" xmlns="http://www.w3.org/2000/svg">
<mask id="path-1-inside-1_2329_493" fill="white">
<rect width="270" height="178" rx="2"/>
</mask>
<rect width="270" height="178" rx="2" stroke="#EEEEEE" stroke-width="8" stroke-dasharray="8 8" mask="url(#path-1-inside-1_2329_493)"/>
<rect width="262" height="170" transform="translate(4 4)" fill="white"/>
<g opacity="0.75">
<path d="M107.244 65.1609C107.244 58.6341 101.211 53.3401 93.7734 53.3401C86.3355 53.3401 80.3032 58.6341 80.3032 65.1609C80.3032 65.1609 82.5282 68.4405 88.1508 67.6347C93.7734 66.8289 101.002 73.2752 101.002 73.2752L107.244 65.1609Z" fill="#BED0F9"/>
<path d="M126.063 77.6829C126.065 79.7614 125.624 81.8163 124.77 83.7101V83.7987C123.623 86.2914 121.8 88.4094 119.508 89.9101C117.217 91.4108 114.55 92.2334 111.814 92.2836H44.0534C40.4319 92.2836 36.9587 90.8404 34.3979 88.2715C31.8371 85.7026 30.3984 82.2183 30.3984 78.5853C30.3984 74.9523 31.8371 71.4681 34.3979 68.8992C36.9587 66.3302 40.4319 64.887 44.0534 64.887H44.6237C47.9012 65.0266 51.019 66.3453 53.4069 68.6017C55.7949 70.8581 57.2932 73.9015 57.628 77.1752L65.2346 62.0829L78.0863 62.2843L80.3674 63.6622L85.8856 66.982L97.3879 73.9198C98.1198 71.5864 99.3835 69.4562 101.079 67.6981C102.774 65.9399 104.855 64.6023 107.155 63.7911C108.555 63.3158 110.023 63.0736 111.501 63.074C115.347 63.1241 119.022 64.6793 121.743 67.4082C124.463 70.1371 126.013 73.8239 126.063 77.6829Z" fill="#6692F1"/>
<path d="M88.5524 91.0025C95.872 91.0025 101.806 85.7714 101.806 79.3186C101.806 72.8658 95.872 67.6348 88.5524 67.6348C81.2328 67.6348 75.2991 72.8658 75.2991 79.3186C75.2991 85.7714 81.2328 91.0025 88.5524 91.0025Z" fill="#92B1F5"/>
<path d="M65.5397 81.3653C77.2999 81.3653 86.8334 72.2885 86.8334 61.0917C86.8334 49.895 77.2999 40.8182 65.5397 40.8182C53.7796 40.8182 44.2461 49.895 44.2461 61.0917C44.2461 72.2885 53.7796 81.3653 65.5397 81.3653Z" fill="#6692F1"/>
<path d="M44.3747 92.2917C52.1379 92.2917 58.4312 85.9783 58.4312 78.1904C58.4312 70.4026 52.1379 64.0892 44.3747 64.0892C36.6114 64.0892 30.3181 70.4026 30.3181 78.1904C30.3181 85.9783 36.6114 92.2917 44.3747 92.2917Z" fill="#3B73ED"/>
<path d="M86.6406 61.4866C86.6406 61.4866 86.8414 65.6605 85.251 68.6419C85.251 68.6419 93.7733 66.8289 98.5926 71.6636C99.518 69.4464 100.995 67.5044 102.882 66.0231C102.882 66.0231 91.0021 69.2382 86.6406 61.4866Z" fill="#0B49D1"/>
<path d="M111.364 92.2917C119.482 92.2917 126.063 85.6898 126.063 77.5459C126.063 69.402 119.482 62.8 111.364 62.8C103.246 62.8 96.665 69.402 96.665 77.5459C96.665 85.6898 103.246 92.2917 111.364 92.2917Z" fill="#92B1F5"/>
<path d="M57.628 82.1388C65.7487 93.0652 74.9537 81.5586 67.0258 78.5772C59.5237 75.757 84.6969 79.9712 84.6969 79.9712C84.6969 79.9712 89.6529 87.7148 97.3799 81.9534C97.3799 81.9534 100.745 89.1088 112.039 89.1088C118.465 89.1088 122.368 87.4972 124.77 83.7987C123.623 86.2913 121.8 88.4094 119.508 89.9101C117.217 91.4108 114.55 92.2334 111.814 92.2836H44.0534C41.8982 92.2851 39.7731 91.7749 37.8521 90.7945C35.9312 89.8142 34.2688 88.3916 33.001 86.6431C35.8685 88.6978 42.1739 92.5978 49.7965 89.4956C56.0216 86.9735 57.628 82.1388 57.628 82.1388Z" fill="#0B49D1"/>
<path d="M93.428 78.5289H87.0021C86.5436 78.5289 86.0997 78.6901 85.7474 78.9846C85.3952 79.279 85.157 79.688 85.0744 80.1404C84.3916 83.984 83.6607 100.229 67.8129 92.2836C70.3592 91.8243 72.2628 91.4778 73.3633 87.3925C73.8941 85.1699 74.2035 82.8998 74.287 80.6159C74.298 80.3847 74.2708 80.1533 74.2067 79.9309C74.087 79.5239 73.8393 79.1666 73.5005 78.9124C73.1618 78.6583 72.7501 78.5209 72.3271 78.5208H66.1824C65.8372 78.5223 65.5039 78.3941 65.2482 78.1615C64.9925 77.9288 64.8329 77.6086 64.8008 77.2638C64.7795 77.06 64.8046 76.8541 64.8742 76.6615C64.9437 76.4689 65.056 76.2946 65.2024 76.1518L78.8574 62.4535C79.1177 62.1937 79.4701 62.0479 79.8373 62.0479C80.2045 62.0479 80.5569 62.1937 80.8172 62.4535L94.4722 76.1518C94.6698 76.3506 94.8029 76.6045 94.8543 76.8805C94.9056 77.1564 94.8727 77.4415 94.7598 77.6983C94.647 77.9552 94.4595 78.1719 94.2219 78.3201C93.9842 78.4683 93.7075 78.5411 93.428 78.5289Z" fill="white"/>
<path d="M93.428 78.5289H87.0022C86.5437 78.5289 86.0997 78.6902 85.7475 78.9846C85.3953 79.2791 85.1571 79.6881 85.0744 80.1405C84.3917 83.9841 83.6607 100.229 67.813 92.2836C70.3592 91.8243 72.2629 91.4778 73.3633 87.3925C73.8854 87.594 82.1989 90.6157 84.2792 80.6884C85.7893 73.4363 96.4642 81.6231 92.0384 73.7748L94.4481 76.1921C94.6304 76.3913 94.751 76.6393 94.7952 76.906C94.8395 77.1726 94.8055 77.4465 94.6974 77.6941C94.5893 77.9417 94.4117 78.1525 94.1864 78.3007C93.961 78.4489 93.6975 78.5282 93.428 78.5289Z" fill="#DADADA"/>
<path d="M74.2147 79.7133C74.2227 79.7883 74.2227 79.864 74.2147 79.939C74.095 79.5319 73.8473 79.1746 73.5085 78.9205C73.1698 78.6663 72.7581 78.5289 72.3351 78.5288H66.1823C65.8371 78.5303 65.5039 78.4022 65.2482 78.1695C64.9925 77.9369 64.8329 77.6166 64.8008 77.2718C65.8568 77.499 66.9445 77.5372 68.0137 77.3846C71.1865 77.1832 74.0781 76.6675 74.2147 79.7133Z" fill="#DADADA"/>
</g>
<path d="M92.5813 125.065L61.7212 135.274C61.6015 135.314 61.475 135.33 61.3491 135.321C61.2232 135.312 61.1003 135.278 60.9875 135.221C60.8747 135.165 60.7743 135.086 60.6921 134.99C60.6098 134.894 60.5474 134.782 60.5083 134.662L59.7051 132.244L59.6328 132.035L49.9298 102.479C49.8884 102.358 49.8714 102.231 49.8798 102.103C49.8882 101.976 49.9218 101.852 49.9786 101.738C50.0354 101.624 50.1144 101.522 50.2108 101.439C50.3073 101.356 50.4192 101.293 50.5402 101.254L81.1514 91.1333L81.4004 91.0527C81.52 91.0124 81.6465 90.9963 81.7724 91.0054C81.8984 91.0144 82.0213 91.0484 82.134 91.1053C82.2468 91.1622 82.3472 91.241 82.4295 91.3371C82.5117 91.4332 82.5742 91.5447 82.6132 91.6651L86.3161 102.946L93.1918 123.896C93.2584 124.133 93.2322 124.385 93.1187 124.603C93.0051 124.82 92.8128 124.985 92.5813 125.065Z" fill="#F2F2F2"/>
<path d="M92.5835 125.063L61.7234 135.273C61.6037 135.313 61.4772 135.329 61.3513 135.32C61.2254 135.311 61.1025 135.277 60.9897 135.22C60.8769 135.163 60.7765 135.084 60.6943 134.988C60.612 134.892 60.5496 134.781 60.5105 134.66L59.7073 132.243C60.2827 132.548 60.9163 132.726 61.5658 132.767C62.2153 132.807 62.8659 132.708 63.4744 132.477C65.4034 131.872 67.0951 130.676 68.3124 129.057C69.5296 127.439 70.2113 125.479 70.2617 123.452C70.2617 119.52 69.2657 106.651 86.3264 102.921L93.202 123.871C93.2754 124.111 93.2517 124.371 93.136 124.594C93.0203 124.817 92.8219 124.986 92.5835 125.063Z" fill="#EBEBEB"/>
<path d="M80.6192 95.274L81.6152 98.2957L85.6314 110.495L87.4467 116.023C87.4768 116.113 87.4888 116.208 87.482 116.302C87.4752 116.397 87.4498 116.489 87.4072 116.574C87.3646 116.659 87.3057 116.734 87.2339 116.796C87.1621 116.858 87.0788 116.904 86.9888 116.933L84.2177 117.844L61.414 125.426C61.2329 125.485 61.036 125.47 60.8661 125.384C60.6961 125.298 60.5669 125.148 60.5063 124.967L53.6869 104.178C53.6566 104.089 53.6443 103.994 53.6505 103.9C53.6567 103.806 53.6815 103.714 53.7233 103.629C53.7651 103.544 53.8231 103.469 53.894 103.407C53.965 103.345 54.0474 103.297 54.1367 103.267L79.7116 94.8067C79.8937 94.7505 80.0906 94.7679 80.2601 94.8552C80.4297 94.9425 80.5585 95.0928 80.6192 95.274Z" fill="white"/>
<path d="M81.6128 98.297L85.6289 110.497L87.4442 116.024C87.4743 116.114 87.4863 116.209 87.4795 116.304C87.4727 116.398 87.4473 116.491 87.4047 116.575C87.3622 116.66 87.3033 116.735 87.2314 116.797C87.1596 116.859 87.0763 116.906 86.9864 116.935L84.2152 117.845L61.4115 125.428C61.2304 125.486 61.0335 125.471 60.8636 125.385C60.6937 125.299 60.5644 125.149 60.5038 124.968L59.7568 122.68C60.9777 116.757 64.9537 105.283 77.6207 99.6427C78.9075 99.0723 80.2438 98.6219 81.6128 98.297Z" fill="#F9F9F9"/>
<path d="M85.6229 110.492L87.4382 116.019C87.4683 116.109 87.4803 116.204 87.4735 116.299C87.4668 116.393 87.4414 116.486 87.3988 116.57C87.3562 116.655 87.2973 116.73 87.2255 116.792C87.1537 116.854 87.0704 116.901 86.9804 116.93L84.2173 117.84C85.0733 115.482 85.5479 113.001 85.6229 110.492Z" fill="#F2F2F2"/>
<path d="M75.6379 114.643C75.3527 115.161 74.9659 115.616 74.5006 115.98C74.0354 116.344 73.5015 116.61 72.931 116.762C71.8134 117.198 70.5698 117.175 69.4691 116.698L69.0112 113.764L74.0636 111.798L75.6379 114.643Z" fill="#FFC979"/>
<path d="M66.8442 112.244C66.5309 112.381 66.1052 112.139 65.7598 111.68C65.6406 111.516 65.5383 111.341 65.4546 111.156C65.1012 110.351 65.1493 109.545 65.567 109.384C65.6616 109.35 65.7627 109.34 65.862 109.354C65.9612 109.368 66.0556 109.406 66.1373 109.464C66.5006 109.714 66.7805 110.068 66.9406 110.479C67.31 111.261 67.2699 112.059 66.8442 112.244Z" fill="#FFE3BF"/>
<path d="M66.8427 112.242C66.5294 112.379 66.1037 112.137 65.7583 111.678C65.943 111.758 66.6258 111.984 66.5615 111.073C66.4896 110.517 66.3381 109.975 66.1117 109.462C66.475 109.712 66.7549 110.065 66.915 110.477C67.3085 111.259 67.2684 112.056 66.8427 112.242Z" fill="#FFD9A0"/>
<path d="M75.4701 107.838C75.6548 108.643 75.4701 109.449 74.9961 109.546C74.5222 109.643 74.0403 109.046 73.8556 108.2C73.7927 107.937 73.771 107.665 73.7913 107.395C73.8315 106.895 74.0242 106.524 74.3214 106.46C74.4207 106.428 74.5273 106.428 74.6267 106.46C74.8619 106.611 75.06 106.813 75.206 107.052C75.3521 107.29 75.4424 107.559 75.4701 107.838Z" fill="#FFE3BF"/>
<path d="M75.4701 107.839C75.6548 108.644 75.4701 109.45 74.9961 109.547C74.5222 109.644 74.0403 109.047 73.8556 108.201C73.7927 107.938 73.771 107.666 73.7913 107.396L74.458 107.871C74.5404 107.929 74.6386 107.96 74.7391 107.96C74.8917 107.96 75.0845 107.871 75.0684 107.468C75.043 107.1 74.8861 106.754 74.6267 106.493C74.8579 106.641 75.0536 106.838 75.1995 107.071C75.3453 107.303 75.4378 107.566 75.4701 107.839Z" fill="#FFD9A0"/>
<path d="M74.8304 108.642C75.5131 111.696 74.3645 114.42 72.3403 115.089C71.6319 115.274 70.8873 115.267 70.182 115.071C69.4767 114.874 68.8358 114.494 68.3242 113.969C67.5315 113.253 66.9038 112.373 66.4848 111.39C65.2398 108.562 65.6253 105.363 67.4085 103.937C67.7233 103.688 68.0796 103.497 68.4607 103.372C69.1899 103.172 69.9603 103.177 70.6863 103.389C71.4123 103.601 72.0655 104.011 72.5733 104.573C73.4317 105.41 74.0882 106.433 74.493 107.563C74.6272 107.915 74.7398 108.276 74.8304 108.642Z" fill="#FFE3BF"/>
<path d="M74.8355 108.643C75.5183 111.697 74.3696 114.421 72.3455 115.089C71.6371 115.274 70.8925 115.268 70.1872 115.072C69.4819 114.875 68.841 114.495 68.3293 113.969C69.9358 114.155 74.5624 114.098 74.4821 107.58C74.6211 107.927 74.7391 108.282 74.8355 108.643Z" fill="#FFD9A0"/>
<path d="M65.6581 109.308C65.695 109.358 65.7463 109.396 65.8051 109.416C65.864 109.436 65.9276 109.438 65.9874 109.421C66.0291 109.417 66.0685 109.4 66.1002 109.373C66.1319 109.345 66.1542 109.308 66.1641 109.268C66.3422 108.496 66.7275 107.787 67.2783 107.219C67.8291 106.651 68.5243 106.245 69.2887 106.045C70.0318 105.768 70.8339 105.691 71.6158 105.821C72.3976 105.951 73.1321 106.284 73.7466 106.786C73.7466 106.786 73.8832 107.06 74.1643 106.738C74.4454 106.415 73.0639 100.452 68.2364 102.048C63.409 103.643 65.2404 108.679 65.6581 109.308Z" fill="#717171"/>
<path d="M83.2845 117.186L64.3684 123.447C64.2915 123.472 64.2091 123.476 64.1303 123.457C64.0516 123.438 63.9797 123.397 63.9229 123.339C63.8661 123.281 63.8265 123.209 63.8087 123.129C63.7909 123.05 63.7956 122.968 63.8222 122.891C63.9036 122.637 64.0199 122.396 64.1676 122.174L68.987 117.275C68.987 117.275 70.481 118.685 73.3003 117.75C76.1197 116.815 76.4329 114.817 76.4329 114.817C78.5368 115.069 80.6237 115.449 82.6821 115.953C82.9822 116.064 83.2558 116.237 83.4853 116.461C83.5409 116.514 83.5811 116.582 83.6015 116.656C83.6219 116.731 83.6218 116.809 83.6012 116.884C83.5806 116.958 83.5402 117.025 83.4845 117.079C83.4287 117.132 83.3596 117.169 83.2845 117.186Z" fill="#919191"/>
<path d="M69.0207 108.528L66.7628 109.275C66.569 109.339 66.4637 109.548 66.5276 109.743L66.9275 110.96C66.9914 111.154 67.2003 111.26 67.3941 111.195L69.6521 110.449C69.8459 110.384 69.9512 110.175 69.8873 109.98L69.4873 108.764C69.4234 108.569 69.2145 108.464 69.0207 108.528Z" fill="#717171"/>
<path d="M69.2775 108.988L69.5827 109.922C69.5941 109.953 69.5991 109.986 69.5975 110.018C69.5959 110.051 69.5877 110.083 69.5734 110.112C69.5592 110.142 69.5391 110.168 69.5145 110.189C69.4899 110.21 69.4612 110.227 69.4301 110.237L67.4542 110.922C67.3866 110.945 67.3129 110.945 67.2453 110.922C67.2001 110.885 67.1642 110.838 67.1409 110.785L66.8357 109.858C66.8155 109.795 66.821 109.726 66.8512 109.667C66.8813 109.608 66.9335 109.564 66.9963 109.544L68.9723 108.891C69.0156 108.877 69.062 108.876 69.1061 108.887C69.1501 108.898 69.1901 108.922 69.2213 108.955C69.2416 108.963 69.2606 108.974 69.2775 108.988Z" fill="#FFD9A0"/>
<path d="M68.7909 108.894L68.3732 110.586L67.4495 110.924C67.3819 110.948 67.3082 110.948 67.2407 110.924C67.1954 110.888 67.1595 110.841 67.1362 110.787L67.5138 109.313L68.7909 108.894Z" fill="white"/>
<path d="M73.2956 107.11L71.0529 107.852C70.8549 107.917 70.7473 108.131 70.8126 108.33L71.2075 109.531C71.2728 109.73 71.4862 109.838 71.6842 109.772L73.927 109.031C74.125 108.965 74.2325 108.751 74.1673 108.552L73.7723 107.351C73.707 107.152 73.4936 107.044 73.2956 107.11Z" fill="#717171"/>
<path d="M73.2247 107.431L71.2871 108.072C71.1481 108.118 71.0726 108.268 71.1184 108.407L71.4127 109.303C71.4586 109.442 71.6084 109.518 71.7475 109.472L73.685 108.831C73.8241 108.785 73.8996 108.635 73.8538 108.495L73.5595 107.6C73.5136 107.46 73.3637 107.385 73.2247 107.431Z" fill="#FFD9A0"/>
<path d="M72.6976 107.601L72.3121 109.309L71.7418 109.503C71.6757 109.523 71.6043 109.517 71.5428 109.485C71.4813 109.454 71.4345 109.399 71.4125 109.333L71.2839 108.826C71.3402 108.584 71.4044 108.302 71.4767 108.02L72.6976 107.601Z" fill="white"/>
<path d="M126.636 94.7019L115.126 136.28C115.038 136.594 114.829 136.86 114.546 137.02C114.263 137.18 113.929 137.221 113.616 137.134L73.7513 126.031C73.5955 125.99 73.4494 125.918 73.3215 125.82C73.1937 125.721 73.0866 125.598 73.0066 125.458C72.9266 125.318 72.8752 125.163 72.8555 125.003C72.8358 124.842 72.8482 124.679 72.8919 124.524L73.4863 122.389L84.4022 82.9455C84.4903 82.6318 84.6985 82.3659 84.9815 82.2058C85.2645 82.0458 85.5991 82.0046 85.9123 82.0914L125.439 93.0984L125.777 93.1951C125.932 93.2371 126.077 93.3094 126.205 93.408C126.332 93.5065 126.439 93.6293 126.518 93.7693C126.598 93.9093 126.65 94.0638 126.67 94.2238C126.69 94.3839 126.679 94.5463 126.636 94.7019Z" fill="#EEEEEE"/>
<path d="M126.636 94.7015L115.126 136.28C115.038 136.594 114.829 136.86 114.546 137.02C114.263 137.18 113.929 137.221 113.616 137.134L73.7513 126.03C73.5955 125.989 73.4494 125.918 73.3215 125.819C73.1937 125.721 73.0866 125.598 73.0066 125.458C72.9266 125.318 72.8752 125.163 72.8555 125.002C72.8358 124.842 72.8482 124.679 72.8919 124.524L73.4863 122.388C74.169 123.395 75.6068 124.733 78.651 125.748C84.2014 127.61 112.274 139.447 123.937 101.253C124.699 98.5898 125.2 95.8586 125.431 93.098L125.769 93.1947C125.925 93.2359 126.071 93.3076 126.199 93.4058C126.327 93.5039 126.435 93.6266 126.515 93.7667C126.596 93.9068 126.648 94.0616 126.669 94.222C126.69 94.3825 126.679 94.5454 126.636 94.7015Z" fill="#DADADA"/>
<path d="M87.1747 87.4066L79.7533 114.216C79.618 114.705 79.9033 115.211 80.3906 115.347L113.422 124.549C113.91 124.684 114.414 124.398 114.55 123.909L121.971 97.1003C122.106 96.6114 121.821 96.1051 121.334 95.9694L88.302 86.7673C87.8147 86.6315 87.31 86.9177 87.1747 87.4066Z" fill="white"/>
<path d="M120.881 101.001L116.407 117.181L114.543 123.909C114.478 124.143 114.323 124.341 114.112 124.46C113.901 124.579 113.652 124.61 113.419 124.546L110.206 123.643L80.3818 115.344C80.1489 115.278 79.9515 115.122 79.8326 114.911C79.7137 114.7 79.683 114.45 79.7472 114.216L80.5505 111.266C86.0205 105.9 98.326 96.5528 115.684 99.639C117.453 99.936 119.193 100.392 120.881 101.001Z" fill="#F7F7F7"/>
<path d="M116.405 117.182L114.542 123.91C114.476 124.144 114.321 124.342 114.11 124.461C113.9 124.58 113.651 124.611 113.417 124.547L110.204 123.644C112.576 121.806 114.665 119.629 116.405 117.182Z" fill="#EEEEEE"/>
<path d="M109.773 122.313L84.656 115.319C84.5279 115.283 84.4126 115.211 84.3231 115.113C84.2337 115.014 84.1738 114.892 84.1503 114.761C84.1268 114.63 84.1407 114.494 84.1903 114.371C84.24 114.247 84.3234 114.14 84.4311 114.061C86.9078 112.237 89.8544 111.163 92.9212 110.967L94.0538 111.934C95.3694 113.055 96.916 113.869 98.5824 114.319C100.249 114.769 101.994 114.843 103.693 114.537L104.897 114.319C107.451 116.073 109.445 118.53 110.64 121.394C110.685 121.518 110.694 121.651 110.667 121.779C110.64 121.907 110.578 122.026 110.488 122.121C110.398 122.216 110.284 122.284 110.158 122.318C110.031 122.352 109.898 122.35 109.773 122.313Z" fill="#6692F1"/>
<path d="M95.4374 111.459L94.5298 110.702L97.9997 104.256L104.008 105.932L103.695 113.184L102.723 113.353C101.444 113.578 100.132 113.525 98.8754 113.199C97.6187 112.872 96.4464 112.279 95.4374 111.459Z" fill="#FFB74D"/>
<path d="M107.316 103.948L105.091 107.518L96.0708 105.004L96.1833 100.846C96.1983 100.414 96.2413 99.9831 96.3118 99.5566C96.5286 98.1465 97.115 95.9709 98.6813 95.0845C99.8056 94.604 101.047 94.4694 102.248 94.6977C103.706 94.88 105.125 95.2991 106.449 95.9386C107.407 96.3215 108.216 97.0057 108.754 97.8886C108.909 98.2212 109.004 98.5785 109.035 98.9442C109.163 101.192 107.316 103.948 107.316 103.948Z" fill="#EF9A9A"/>
<path d="M107.316 103.954L105.091 107.524L96.0708 105.01L96.1833 100.852C96.1983 100.42 96.2413 99.9892 96.3118 99.5627C96.4805 99.7883 97.115 100.006 99.3078 98.5474C102.344 96.5652 107.34 101.464 108.537 100.328C108.867 99.9463 109.044 99.4555 109.035 98.9503C109.163 101.198 107.316 103.954 107.316 103.954Z" fill="#EF5350"/>
<path d="M105.53 100.618C105.53 100.618 99.8028 100.497 100.413 98.2889C100.795 96.9864 101.423 95.7692 102.261 94.7031C103.719 94.8854 105.138 95.3045 106.462 95.944C106.767 97.6926 105.53 100.618 105.53 100.618Z" fill="#EEEEEE"/>
<path d="M96.1846 100.851C96.1846 100.851 98.5943 97.1043 102.884 98.2969C107.173 99.4894 107.301 103.937 107.301 103.937L106.345 105.372L96.1846 102.551V100.851Z" fill="#F44336"/>
<path d="M94.9845 105.483C94.5266 105.418 94.1813 104.935 94.0688 104.274C94.0204 103.959 94.0204 103.638 94.0688 103.323C94.2134 102.211 94.872 101.389 95.5227 101.478C96.1733 101.567 96.4865 102.284 96.4705 103.251C96.4781 103.38 96.4781 103.509 96.4705 103.638C96.2857 104.742 95.6351 105.571 94.9845 105.483Z" fill="#FFDAA9"/>
<path d="M94.9838 105.481C94.526 105.416 94.1806 104.933 94.0681 104.272C94.2448 104.457 94.8713 105.013 95.3533 103.901C95.4402 103.685 95.5961 103.503 95.7966 103.385C95.9972 103.267 96.2311 103.219 96.4617 103.249C96.4694 103.377 96.4694 103.506 96.4617 103.635C96.285 104.739 95.6344 105.569 94.9838 105.481Z" fill="#FFCC80"/>
<path d="M107.887 107.166C107.446 108.189 106.594 108.778 105.984 108.544C105.373 108.31 105.245 107.238 105.687 106.215C105.83 105.87 106.034 105.553 106.289 105.28C106.437 105.084 106.64 104.937 106.871 104.856C107.103 104.776 107.353 104.767 107.59 104.829C107.739 104.908 107.865 105.023 107.958 105.164C108.05 105.305 108.106 105.467 108.12 105.635C108.191 106.157 108.11 106.689 107.887 107.166Z" fill="#FFDAA9"/>
<path d="M107.887 107.164C107.446 108.187 106.594 108.776 105.984 108.542C105.373 108.308 105.245 107.236 105.687 106.213C105.83 105.868 106.034 105.551 106.289 105.278L106.426 105.955C106.426 105.955 107.422 107.253 108.032 105.955C108.08 105.846 108.118 105.733 108.144 105.617C108.21 106.147 108.121 106.684 107.887 107.164Z" fill="#FFCC80"/>
<path d="M106.696 106.778C106.373 107.965 105.766 109.055 104.929 109.953C104.643 110.249 104.331 110.519 103.997 110.759C103.322 111.296 102.53 111.665 101.685 111.834C100.84 112.003 99.9671 111.968 99.1384 111.732C98.3097 111.495 97.5489 111.065 96.9188 110.475C96.2888 109.886 95.8076 109.155 95.5151 108.342C95.3917 108.029 95.2897 107.709 95.2098 107.383C94.9054 106.122 94.9303 104.804 95.2821 103.555C95.4303 102.995 95.6432 102.454 95.9167 101.944V101.895C97.3464 99.2605 100.142 97.8101 102.784 98.5433C105.957 99.4861 107.7 103.144 106.696 106.778Z" fill="#FFDAA9"/>
<path d="M106.694 106.783C106.371 107.97 105.764 109.06 104.927 109.958C104.641 110.254 104.329 110.524 103.995 110.764L102.734 109.531C102.734 109.531 106.148 108.145 106.549 105.881C106.549 105.881 105.746 106.227 104.308 103.778C102.871 101.328 98.9829 101.36 97.1917 102.166C96.9913 102.28 96.7603 102.328 96.5311 102.304C96.302 102.279 96.0863 102.183 95.9146 102.029V101.981C97.3443 99.3458 100.14 97.8954 102.782 98.6287C105.955 99.4908 107.698 103.149 106.694 106.783Z" fill="#FFCC80"/>
<path d="M104.931 109.952C104.227 110.753 103.318 111.345 102.303 111.664C101.288 111.984 100.205 112.019 99.1715 111.765C98.3444 111.52 97.5846 111.087 96.9509 110.5C96.3172 109.914 95.8265 109.188 95.5168 108.381L96.5129 105.158L103.742 106.955L104.931 109.952Z" fill="#FFCC80"/>
<path d="M98.8963 109.42C99.634 109.759 100.438 109.927 101.25 109.912C103.812 109.855 102.856 108.026 101.25 107.494C99.3943 106.866 97.7476 106.737 97.3059 107.873C97.0729 108.501 98.0609 109.049 98.8963 109.42Z" fill="#FFDAA9"/>
<path d="M107.844 105.06C107.193 106.188 105.828 101.837 102.687 100.854C99.5465 99.8707 98.1569 101.232 96.2613 101.732C95.2733 101.99 95.1287 101.732 95.2091 101.458C95.2788 101.256 95.3881 101.07 95.5304 100.91C95.5304 100.91 99.3939 96.7604 103.547 98.0254C104.456 98.3055 105.29 98.789 105.985 99.4395C106.681 100.09 107.22 100.89 107.563 101.78C108.064 102.799 108.164 103.97 107.844 105.06Z" fill="#E57373"/>
<path d="M105.891 109.11C105.281 111.318 104.831 111.648 103.795 111.358C102.759 111.068 104.598 108.409 103.072 107.869C101.479 107.234 99.8104 106.808 98.1081 106.604C96.6622 106.54 97.1924 109.521 95.4092 109.022C95.1788 108.937 94.9899 108.767 94.882 108.546C94.7742 108.325 94.7558 108.071 94.8309 107.837C94.8309 107.668 94.8871 107.434 94.9273 107.168C95.104 105.911 95.5297 103.945 97.337 104.461L104.96 106.588C104.96 106.588 106.502 106.894 105.891 109.11Z" fill="#FF9800"/>
<path d="M105.891 109.106C105.281 111.314 104.831 111.644 103.795 111.354C102.759 111.064 104.598 108.405 103.072 107.865C101.479 107.23 99.8104 106.804 98.1081 106.6C96.6622 106.536 97.1924 109.517 95.4092 109.017C95.1788 108.933 94.9899 108.763 94.882 108.542C94.7742 108.321 94.7558 108.067 94.8309 107.833C94.8309 107.664 94.8871 107.43 94.9273 107.164C95.1682 107.68 95.6823 108.486 96.2606 107.559C97.2807 105.947 97.9956 105.77 101.433 106.842C104.695 107.857 104.831 107.221 104.927 108.453C105.024 109.686 106.759 107.817 105.185 106.713L104.968 106.544C104.968 106.544 106.502 106.89 105.891 109.106Z" fill="#E28100"/>
<path d="M107.844 105.066C107.193 106.194 105.828 101.843 102.687 100.86C99.5465 99.8768 98.1569 101.239 96.2613 101.738C95.2733 101.996 95.1287 101.738 95.2091 101.464C95.3295 101.561 95.6589 101.649 96.5103 101.287C97.7874 100.739 100.036 99.5544 102.663 100.28C105.29 101.005 107.402 104.776 107.595 102.447C107.61 102.228 107.594 102.009 107.547 101.795C108.051 102.809 108.157 103.977 107.844 105.066Z" fill="#F44336"/>
<path d="M143.187 85V75.2H147.639C148.703 75.2 149.641 75.4053 150.453 75.816C151.265 76.2173 151.9 76.782 152.357 77.51C152.815 78.238 153.043 79.1013 153.043 80.1C153.043 81.0893 152.815 81.9527 152.357 82.69C151.9 83.418 151.265 83.9873 150.453 84.398C149.641 84.7993 148.703 85 147.639 85H143.187ZM145.455 83.138H147.527C148.181 83.138 148.745 83.0167 149.221 82.774C149.707 82.522 150.08 82.1673 150.341 81.71C150.612 81.2527 150.747 80.716 150.747 80.1C150.747 79.4747 150.612 78.938 150.341 78.49C150.08 78.0327 149.707 77.6827 149.221 77.44C148.745 77.188 148.181 77.062 147.527 77.062H145.455V83.138ZM154.754 85V75.2H158.996C159.873 75.2 160.629 75.3447 161.264 75.634C161.898 75.914 162.388 76.32 162.734 76.852C163.079 77.384 163.252 78.0187 163.252 78.756C163.252 79.484 163.079 80.114 162.734 80.646C162.388 81.1687 161.898 81.57 161.264 81.85C160.629 82.13 159.873 82.27 158.996 82.27H156.014L157.022 81.276V85H154.754ZM160.984 85L158.534 81.444H160.956L163.434 85H160.984ZM157.022 81.528L156.014 80.464H158.87C159.57 80.464 160.092 80.3147 160.438 80.016C160.783 79.708 160.956 79.288 160.956 78.756C160.956 78.2147 160.783 77.7947 160.438 77.496C160.092 77.1973 159.57 77.048 158.87 77.048H156.014L157.022 75.97V81.528ZM163.761 85L168.129 75.2H170.369L174.751 85H172.371L168.787 76.348H169.683L166.085 85H163.761ZM165.945 82.9L166.547 81.178H171.587L172.203 82.9H165.945ZM180.363 85.168C179.588 85.168 178.874 85.0467 178.221 84.804C177.577 84.552 177.012 84.1973 176.527 83.74C176.051 83.2827 175.677 82.746 175.407 82.13C175.145 81.514 175.015 80.8373 175.015 80.1C175.015 79.3627 175.145 78.686 175.407 78.07C175.677 77.454 176.055 76.9173 176.541 76.46C177.026 76.0027 177.595 75.6527 178.249 75.41C178.902 75.158 179.621 75.032 180.405 75.032C181.273 75.032 182.052 75.1767 182.743 75.466C183.443 75.7553 184.031 76.1753 184.507 76.726L183.051 78.07C182.696 77.6967 182.309 77.4213 181.889 77.244C181.469 77.0573 181.011 76.964 180.517 76.964C180.041 76.964 179.607 77.0387 179.215 77.188C178.823 77.3373 178.482 77.552 178.193 77.832C177.913 78.112 177.693 78.4433 177.535 78.826C177.385 79.2087 177.311 79.6333 177.311 80.1C177.311 80.5573 177.385 80.9773 177.535 81.36C177.693 81.7427 177.913 82.0787 178.193 82.368C178.482 82.648 178.818 82.8627 179.201 83.012C179.593 83.1613 180.022 83.236 180.489 83.236C180.937 83.236 181.371 83.166 181.791 83.026C182.22 82.8767 182.635 82.6293 183.037 82.284L184.325 83.922C183.793 84.3233 183.172 84.6313 182.463 84.846C181.763 85.0607 181.063 85.168 180.363 85.168ZM182.253 83.628V79.946H184.325V83.922L182.253 83.628ZM190.396 85V75.2H192.664V85H190.396ZM194.99 85V75.2H196.866L201.038 82.116H200.044L204.146 75.2H206.008L206.036 85H203.908L203.894 78.462H204.286L201.01 83.964H199.988L196.642 78.462H197.118V85H194.99ZM207.073 85L211.441 75.2H213.681L218.063 85H215.683L212.099 76.348H212.995L209.397 85H207.073ZM209.257 82.9L209.859 81.178H214.899L215.515 82.9H209.257ZM223.675 85.168C222.901 85.168 222.187 85.0467 221.533 84.804C220.889 84.552 220.325 84.1973 219.839 83.74C219.363 83.2827 218.99 82.746 218.719 82.13C218.458 81.514 218.327 80.8373 218.327 80.1C218.327 79.3627 218.458 78.686 218.719 78.07C218.99 77.454 219.368 76.9173 219.853 76.46C220.339 76.0027 220.908 75.6527 221.561 75.41C222.215 75.158 222.933 75.032 223.717 75.032C224.585 75.032 225.365 75.1767 226.055 75.466C226.755 75.7553 227.343 76.1753 227.819 76.726L226.363 78.07C226.009 77.6967 225.621 77.4213 225.201 77.244C224.781 77.0573 224.324 76.964 223.829 76.964C223.353 76.964 222.919 77.0387 222.527 77.188C222.135 77.3373 221.795 77.552 221.505 77.832C221.225 78.112 221.006 78.4433 220.847 78.826C220.698 79.2087 220.623 79.6333 220.623 80.1C220.623 80.5573 220.698 80.9773 220.847 81.36C221.006 81.7427 221.225 82.0787 221.505 82.368C221.795 82.648 222.131 82.8627 222.513 83.012C222.905 83.1613 223.335 83.236 223.801 83.236C224.249 83.236 224.683 83.166 225.103 83.026C225.533 82.8767 225.948 82.6293 226.349 82.284L227.637 83.922C227.105 84.3233 226.485 84.6313 225.775 84.846C225.075 85.0607 224.375 85.168 223.675 85.168ZM225.565 83.628V79.946H227.637V83.922L225.565 83.628ZM231.83 79.148H236.548V80.912H231.83V79.148ZM231.998 83.18H237.332V85H229.744V75.2H237.15V77.02H231.998V83.18Z" fill="#424242"/>
<path d="M143.289 104.11C142.688 104.11 142.134 104.011 141.628 103.813C141.122 103.615 140.682 103.34 140.308 102.988C139.934 102.629 139.644 102.211 139.439 101.734C139.234 101.25 139.131 100.722 139.131 100.15C139.131 99.578 139.234 99.0537 139.439 98.577C139.644 98.093 139.934 97.675 140.308 97.323C140.682 96.9637 141.122 96.685 141.628 96.487C142.134 96.289 142.684 96.19 143.278 96.19C143.879 96.19 144.429 96.289 144.928 96.487C145.434 96.685 145.874 96.9637 146.248 97.323C146.622 97.675 146.912 98.093 147.117 98.577C147.322 99.0537 147.425 99.578 147.425 100.15C147.425 100.722 147.322 101.25 147.117 101.734C146.912 102.218 146.622 102.636 146.248 102.988C145.874 103.34 145.434 103.615 144.928 103.813C144.429 104.011 143.883 104.11 143.289 104.11ZM143.278 102.856C143.667 102.856 144.026 102.79 144.356 102.658C144.686 102.526 144.972 102.339 145.214 102.097C145.456 101.848 145.643 101.562 145.775 101.239C145.914 100.909 145.984 100.546 145.984 100.15C145.984 99.754 145.914 99.3947 145.775 99.072C145.643 98.742 145.456 98.456 145.214 98.214C144.972 97.9647 144.686 97.774 144.356 97.642C144.026 97.51 143.667 97.444 143.278 97.444C142.889 97.444 142.53 97.51 142.2 97.642C141.877 97.774 141.591 97.9647 141.342 98.214C141.1 98.456 140.909 98.742 140.77 99.072C140.638 99.3947 140.572 99.754 140.572 100.15C140.572 100.539 140.638 100.898 140.77 101.228C140.909 101.558 141.1 101.848 141.342 102.097C141.584 102.339 141.87 102.526 142.2 102.658C142.53 102.79 142.889 102.856 143.278 102.856ZM148.941 104V96.3H152.109C152.791 96.3 153.374 96.41 153.858 96.63C154.349 96.85 154.727 97.1653 154.991 97.576C155.255 97.9867 155.387 98.4743 155.387 99.039C155.387 99.6037 155.255 100.091 154.991 100.502C154.727 100.905 154.349 101.217 153.858 101.437C153.374 101.65 152.791 101.756 152.109 101.756H149.733L150.371 101.107V104H148.941ZM153.979 104L152.032 101.206H153.561L155.519 104H153.979ZM150.371 101.261L149.733 100.579H152.043C152.673 100.579 153.146 100.443 153.462 100.172C153.784 99.9007 153.946 99.523 153.946 99.039C153.946 98.5477 153.784 98.17 153.462 97.906C153.146 97.642 152.673 97.51 152.043 97.51H149.733L150.371 96.806V101.261ZM163.591 104.11C163.004 104.11 162.458 104.015 161.952 103.824C161.453 103.626 161.017 103.351 160.643 102.999C160.276 102.64 159.99 102.218 159.785 101.734C159.579 101.25 159.477 100.722 159.477 100.15C159.477 99.578 159.579 99.05 159.785 98.566C159.99 98.082 160.28 97.664 160.654 97.312C161.028 96.9527 161.464 96.6777 161.963 96.487C162.461 96.289 163.008 96.19 163.602 96.19C164.232 96.19 164.808 96.3 165.329 96.52C165.849 96.7327 166.289 97.0517 166.649 97.477L165.725 98.346C165.446 98.0453 165.134 97.8217 164.79 97.675C164.445 97.521 164.071 97.444 163.668 97.444C163.264 97.444 162.894 97.51 162.557 97.642C162.227 97.774 161.937 97.961 161.688 98.203C161.446 98.445 161.255 98.731 161.116 99.061C160.984 99.391 160.918 99.754 160.918 100.15C160.918 100.546 160.984 100.909 161.116 101.239C161.255 101.569 161.446 101.855 161.688 102.097C161.937 102.339 162.227 102.526 162.557 102.658C162.894 102.79 163.264 102.856 163.668 102.856C164.071 102.856 164.445 102.783 164.79 102.636C165.134 102.482 165.446 102.251 165.725 101.943L166.649 102.823C166.289 103.241 165.849 103.56 165.329 103.78C164.808 104 164.229 104.11 163.591 104.11ZM168.019 104V96.3H169.449V102.79H173.475V104H168.019ZM174.604 104V96.3H176.034V104H174.604ZM181.681 104.11C181.094 104.11 180.548 104.015 180.042 103.824C179.543 103.626 179.107 103.351 178.733 102.999C178.366 102.64 178.08 102.218 177.875 101.734C177.669 101.25 177.567 100.722 177.567 100.15C177.567 99.578 177.669 99.05 177.875 98.566C178.08 98.082 178.37 97.664 178.744 97.312C179.118 96.9527 179.554 96.6777 180.053 96.487C180.551 96.289 181.098 96.19 181.692 96.19C182.322 96.19 182.898 96.3 183.419 96.52C183.939 96.7327 184.379 97.0517 184.739 97.477L183.815 98.346C183.536 98.0453 183.224 97.8217 182.88 97.675C182.535 97.521 182.161 97.444 181.758 97.444C181.354 97.444 180.984 97.51 180.647 97.642C180.317 97.774 180.027 97.961 179.778 98.203C179.536 98.445 179.345 98.731 179.206 99.061C179.074 99.391 179.008 99.754 179.008 100.15C179.008 100.546 179.074 100.909 179.206 101.239C179.345 101.569 179.536 101.855 179.778 102.097C180.027 102.339 180.317 102.526 180.647 102.658C180.984 102.79 181.354 102.856 181.758 102.856C182.161 102.856 182.535 102.783 182.88 102.636C183.224 102.482 183.536 102.251 183.815 101.943L184.739 102.823C184.379 103.241 183.939 103.56 183.419 103.78C182.898 104 182.319 104.11 181.681 104.11ZM187.385 102.185L187.308 100.491L191.345 96.3H192.951L189.596 99.864L188.804 100.733L187.385 102.185ZM186.109 104V96.3H187.539V104H186.109ZM191.477 104L188.529 100.491L189.475 99.446L193.149 104H191.477ZM198.724 104V97.51H196.172V96.3H202.706V97.51H200.154V104H198.724ZM207.28 104.11C206.679 104.11 206.125 104.011 205.619 103.813C205.113 103.615 204.673 103.34 204.299 102.988C203.925 102.629 203.636 102.211 203.43 101.734C203.225 101.25 203.122 100.722 203.122 100.15C203.122 99.578 203.225 99.0537 203.43 98.577C203.636 98.093 203.925 97.675 204.299 97.323C204.673 96.9637 205.113 96.685 205.619 96.487C206.125 96.289 206.675 96.19 207.269 96.19C207.871 96.19 208.421 96.289 208.919 96.487C209.425 96.685 209.865 96.9637 210.239 97.323C210.613 97.675 210.903 98.093 211.108 98.577C211.314 99.0537 211.416 99.578 211.416 100.15C211.416 100.722 211.314 101.25 211.108 101.734C210.903 102.218 210.613 102.636 210.239 102.988C209.865 103.34 209.425 103.615 208.919 103.813C208.421 104.011 207.874 104.11 207.28 104.11ZM207.269 102.856C207.658 102.856 208.017 102.79 208.347 102.658C208.677 102.526 208.963 102.339 209.205 102.097C209.447 101.848 209.634 101.562 209.766 101.239C209.906 100.909 209.975 100.546 209.975 100.15C209.975 99.754 209.906 99.3947 209.766 99.072C209.634 98.742 209.447 98.456 209.205 98.214C208.963 97.9647 208.677 97.774 208.347 97.642C208.017 97.51 207.658 97.444 207.269 97.444C206.881 97.444 206.521 97.51 206.191 97.642C205.869 97.774 205.583 97.9647 205.333 98.214C205.091 98.456 204.901 98.742 204.761 99.072C204.629 99.3947 204.563 99.754 204.563 100.15C204.563 100.539 204.629 100.898 204.761 101.228C204.901 101.558 205.091 101.848 205.333 102.097C205.575 102.339 205.861 102.526 206.191 102.658C206.521 102.79 206.881 102.856 207.269 102.856ZM214.883 104L218.348 96.3H219.756L223.232 104H221.736L218.755 97.059H219.327L216.357 104H214.883ZM216.478 102.218L216.863 101.096H221.021L221.406 102.218H216.478ZM224.211 104V96.3H227.577C228.413 96.3 229.147 96.4613 229.777 96.784C230.408 97.1067 230.899 97.554 231.251 98.126C231.603 98.698 231.779 99.3727 231.779 100.15C231.779 100.92 231.603 101.595 231.251 102.174C230.899 102.746 230.408 103.193 229.777 103.516C229.147 103.839 228.413 104 227.577 104H224.211ZM225.641 102.79H227.511C228.091 102.79 228.589 102.68 229.007 102.46C229.433 102.24 229.759 101.932 229.986 101.536C230.221 101.14 230.338 100.678 230.338 100.15C230.338 99.6147 230.221 99.1527 229.986 98.764C229.759 98.368 229.433 98.06 229.007 97.84C228.589 97.62 228.091 97.51 227.511 97.51H225.641V102.79ZM233.299 104V96.3H236.665C237.501 96.3 238.234 96.4613 238.865 96.784C239.496 97.1067 239.987 97.554 240.339 98.126C240.691 98.698 240.867 99.3727 240.867 100.15C240.867 100.92 240.691 101.595 240.339 102.174C239.987 102.746 239.496 103.193 238.865 103.516C238.234 103.839 237.501 104 236.665 104H233.299ZM234.729 102.79H236.599C237.178 102.79 237.677 102.68 238.095 102.46C238.52 102.24 238.847 101.932 239.074 101.536C239.309 101.14 239.426 100.678 239.426 100.15C239.426 99.6147 239.309 99.1527 239.074 98.764C238.847 98.368 238.52 98.06 238.095 97.84C237.677 97.62 237.178 97.51 236.599 97.51H234.729V102.79Z" fill="#424242"/>
</svg>
